<svg width="32" height="32" viewBox="0 0 32 32" fill="none" xmlns="http://www.w3.org/2000/svg">
<path d="M32 32C27.1221 29.8095 21.7022 28.5674 16.0113 28.5674C10.2978 28.5674 4.87791 29.7869 0 32V0H32V32Z" fill="#141E8C"/>
<path d="M3.83904 9.68811C2.32599 9.68811 2.21307 11.2012 2.21307 11.2012H1.49042V8.94287H7.09098C7.09098 8.94287 7.13615 10.6818 5.48759 12.5336C5.48759 12.5336 3.90679 14.3628 3.86162 15.1758H4.76494C6.07475 15.1758 6.21025 13.6627 6.21025 13.6627H6.95548V15.921H1.21942C1.21942 15.921 1.01618 14.2047 3.00347 12.1271C3.00347 12.1271 4.22295 10.7721 4.51653 9.68811H3.83904Z" fill="white"/>
<path d="M18.0889 15.9212V15.176H17.9083C17.5921 15.176 17.3437 14.9276 17.3437 14.6114V10.2529C17.3437 9.93677 17.5921 9.68835 17.9083 9.68835H18.0889V8.94312H14.3853V9.68835H14.566C14.8821 9.68835 15.1305 9.93677 15.1305 10.2529V14.6114C15.1305 14.9276 14.8821 15.176 14.566 15.176H14.3853V15.9212H18.0889Z" fill="white"/>
<path d="M13.6175 15.9216V13.6633H12.8722C12.8722 13.6633 12.7367 15.1989 11.4269 15.1989H10.6817V12.8277H10.9527C11.2688 12.8277 11.5173 13.0762 11.5173 13.3923V13.6633H12.2625V11.2244H11.5173V11.5179C11.5173 11.8341 11.2688 12.0825 10.9527 12.0825H10.6817V9.7113H11.4269C12.7367 9.7113 12.8722 11.2244 12.8722 11.2244H13.6175V8.96606H7.70074V9.7113H7.88141C8.19757 9.7113 8.44598 9.95971 8.44598 10.2759V14.6344C8.44598 14.9505 8.19757 15.1989 7.88141 15.1989H7.70074V15.9442L13.6175 15.9216Z" fill="white"/>
<path d="M21.9957 9.68835C23.5088 9.68835 23.6217 11.2014 23.6217 11.2014H24.3443V8.94312H18.9922C18.9922 8.94312 18.1566 10.0497 20.3471 12.5338C20.3471 12.5338 21.928 14.363 21.9505 15.176H21.0472C19.7374 15.176 19.6019 13.6629 19.6019 13.6629H18.8567V15.9212H24.254C24.254 15.9212 25.2251 14.8598 22.8087 12.1273C22.8087 12.1273 21.544 10.8175 21.2956 9.68835H21.9957Z" fill="white"/>
<path d="M28.2513 9.68835C29.7418 9.68835 29.8773 11.2014 29.8773 11.2014H30.5999V8.94312H25.2478C25.2478 8.94312 24.3896 10.0497 26.6027 12.5338C26.6027 12.5338 28.1835 14.363 28.2061 15.176H27.3028C25.993 15.176 25.8575 13.6629 25.8575 13.6629H25.1123V15.9212H30.5096C30.5096 15.9212 31.4807 14.8598 29.0643 12.1273C29.0643 12.1273 27.7996 10.8175 27.5512 9.68835H28.2513Z" fill="white"/>
</svg>
