<svg width="15" height="16" viewBox="0 0 15 16" fill="none" xmlns="http://www.w3.org/2000/svg">
<path fill-rule="evenodd" clip-rule="evenodd" d="M4.5 0H3.5L3.03681 1.15796C1.85243 1.55923 1 2.68007 1 4C1 4.61337 1.18408 5.18374 1.5 5.6589V9H0V11H1.5V13L3.5 16V11H4.5V16L6.5 13V11H8V9H6.5V5.6589C6.81592 5.18374 7 4.61337 7 4C7 2.68007 6.14757 1.55923 4.96319 1.15796L4.5 0ZM4.5 6.95852V9H3.5V6.95852C3.6626 6.9858 3.82964 7 4 7C4.17036 7 4.3374 6.9858 4.5 6.95852ZM5 4C5 4.55228 4.55228 5 4 5C3.44772 5 3 4.55228 3 4C3 3.44772 3.44772 3 4 3C4.55228 3 5 3.44772 5 4Z" fill="#D1D9E5"/>
<path d="M8.14193 14.9267C7.6421 14.8403 7.1677 14.6797 6.73047 14.4566L7.49969 13.3028V12.6158C7.94145 12.8696 8.45362 13.0148 8.99969 13.0148C10.6647 13.0148 12.0145 11.665 12.0145 10C12.0145 8.33496 10.6647 6.98517 8.99969 6.98517C8.45362 6.98517 7.94145 7.13035 7.49969 7.38422V5.93761C7.6393 5.68583 7.75256 5.41737 7.83576 5.13617C7.93667 5.11211 8.03876 5.09111 8.14193 5.07328L8.49969 4H9.49969L9.85745 5.07328C10.5993 5.20153 11.2851 5.49323 11.8765 5.90995L12.8888 5.40379L13.5959 6.1109L13.0897 7.12321C13.5064 7.7146 13.7982 8.40042 13.9264 9.14223L14.9997 9.49999V10.5L13.9264 10.8578C13.7982 11.5996 13.5064 12.2854 13.0897 12.8768L13.5959 13.8891L12.8888 14.5962L11.8765 14.09C11.2851 14.5068 10.5993 14.7985 9.85746 14.9267L9.49969 16H8.49969L8.14193 14.9267Z" fill="#D1D9E5"/>
</svg>
