<svg width="16" height="16" viewBox="0 0 16 16" fill="none" xmlns="http://www.w3.org/2000/svg">
<path fill-rule="evenodd" clip-rule="evenodd" d="M10 7.33342C11.8409 7.33342 13.3333 5.84103 13.3333 4.00008C13.3333 2.15913 11.8409 0.666748 10 0.666748C8.15905 0.666748 6.66667 2.15913 6.66667 4.00008C6.66667 5.84103 8.15905 7.33342 10 7.33342ZM10 6.00004C11.1046 6.00004 12 5.10461 12 4.00004C12 2.89547 11.1046 2.00004 10 2.00004C8.89543 2.00004 8 2.89547 8 4.00004C8 5.10461 8.89543 6.00004 10 6.00004Z" fill="#D1D9E5"/>
<path d="M13.3333 8.66675H12V11.3334H9.33333V12.6667H12V15.3334H13.3333V12.6667H16V11.3334H13.3333V8.66675Z" fill="#D1D9E5"/>
<path d="M5.13649 11.6091C6.33427 9.83402 8.36415 8.66675 10.6667 8.66675V10.0001C7.72115 10.0001 5.33333 12.3879 5.33333 15.3334H4C4 14.4412 4.17528 13.5899 4.49329 12.812C4.12242 12.7172 3.73377 12.6667 3.33333 12.6667C2.02754 12.6667 0.847011 13.2031 0 14.0674V12.3438C0.953399 11.7056 2.0999 11.3334 3.33333 11.3334C3.96162 11.3334 4.56735 11.43 5.13649 11.6091Z" fill="#D1D9E5"/>
<path fill-rule="evenodd" clip-rule="evenodd" d="M3.33331 10C4.80606 10 5.99996 8.80614 5.99996 7.33339C5.99996 5.86065 4.80606 4.66675 3.33331 4.66675C1.86056 4.66675 0.666667 5.86065 0.666667 7.33339C0.666667 8.80614 1.86056 10 3.33331 10ZM3.33331 8.66675C4.06969 8.66675 4.66665 8.06979 4.66665 7.33342C4.66665 6.59704 4.06969 6.00008 3.33331 6.00008C2.59693 6.00008 1.99998 6.59704 1.99998 7.33342C1.99998 8.06979 2.59693 8.66675 3.33331 8.66675Z" fill="#D1D9E5"/>
</svg>
