<svg width="16" height="16" viewBox="0 0 16 16" fill="none" xmlns="http://www.w3.org/2000/svg">
<path fill-rule="evenodd" clip-rule="evenodd" d="M8.66667 0H7.33333L6.85632 1.43103C5.86724 1.60203 4.95282 1.99097 4.1643 2.5466L2.81454 1.87172L1.87173 2.81453L2.54661 4.16429C1.99097 4.95281 1.60203 5.86723 1.43104 6.85631L0 7.33332V8.66666L1.43104 9.14367C1.60203 10.1327 1.99097 11.0472 2.5466 11.8357L1.87172 13.1854L2.81453 14.1282L4.16427 13.4534C4.9528 14.009 5.86723 14.398 6.85632 14.569L7.33333 16H8.66667L9.14369 14.5689C10.1328 14.398 11.0472 14.009 11.8357 13.4534L13.1854 14.1282L14.1282 13.1854L13.4534 11.8357C14.009 11.0472 14.398 10.1328 14.5689 9.14368L16 8.66666V7.33332L14.5689 6.85631C14.3979 5.86722 14.009 4.9528 13.4534 4.16428L14.1282 2.81453L13.1854 1.87172L11.8357 2.5466C11.0472 1.99097 10.1328 1.60203 9.14368 1.43104L8.66667 0ZM12.0198 8C12.0198 10.2201 10.2201 12.0198 8 12.0198C5.77994 12.0198 3.98023 10.2201 3.98023 8C3.98023 5.77994 5.77994 3.98023 8 3.98023C10.2201 3.98023 12.0198 5.77994 12.0198 8Z" fill="#D1D9E5"/>
</svg>
