<svg width="14" height="16" viewBox="0 0 14 16" fill="none" xmlns="http://www.w3.org/2000/svg">
<path fill-rule="evenodd" clip-rule="evenodd" d="M11 4C11 6.20914 9.20914 8 7 8C4.79086 8 3 6.20914 3 4C3 1.79086 4.79086 0 7 0C9.20914 0 11 1.79086 11 4ZM9 4C9 5.10457 8.10457 6 7 6C5.89543 6 5 5.10457 5 4C5 2.89543 5.89543 2 7 2C8.10457 2 9 2.89543 9 4Z" fill="#353D45"/>
<path d="M14 16H12C12 13.2386 9.76142 11 7 11C4.23858 11 2 13.2386 2 16H0C0 12.134 3.13401 9 7 9C10.866 9 14 12.134 14 16Z" fill="#353D45"/>
</svg>
